<?xml version="1.0" encoding="UTF-8" standalone="no"?>
<svg
   width="365px"
   height="272px"
   version="1.1"
   id="svg25"
   sodipodi:docname="The_Godfather.svg"
   inkscape:version="1.2.2 (b0a8486541, 2022-12-01)"
   xmlns:inkscape="http://www.inkscape.org/namespaces/inkscape"
   xmlns:sodipodi="http://sodipodi.sourceforge.net/DTD/sodipodi-0.dtd"
   xmlns:xlink="http://www.w3.org/1999/xlink"
   xmlns="http://www.w3.org/2000/svg"
   xmlns:svg="http://www.w3.org/2000/svg">
  <sodipodi:namedview
     id="namedview27"
     pagecolor="#ffffff"
     bordercolor="#000000"
     borderopacity="0.25"
     inkscape:showpageshadow="2"
     inkscape:pageopacity="0.0"
     inkscape:pagecheckerboard="0"
     inkscape:deskcolor="#d1d1d1"
     showgrid="false"
     inkscape:zoom="2.207109"
     inkscape:cx="182.5918"
     inkscape:cy="137.05712"
     inkscape:window-width="1920"
     inkscape:window-height="1012"
     inkscape:window-x="0"
     inkscape:window-y="0"
     inkscape:window-maximized="1"
     inkscape:current-layer="svg25" />
  <defs
     id="defs5">
    <symbol
       id="e">
      <path
         d="M132.219 72.129c3.3 0 3.644 10.918-2.778 14.746 0 0-.87-14.746 2.778-14.746zm.515 27.676s7.293-5.47 11.2-8.332c0 0 4.425-3.125 4.425-8.856V67.781c0-4.43-4.03-9.246-8.199-9.246h-17.45c-8.198 0-8.98 8.985-8.98 8.985v52.34c0 9.37 7.81 8.85 7.81 8.85h19.269c6.77 0 7.293-8.07 7.293-8.07v-18.222c0 7.027-4.426 12.234-7.293 12.234h-7.29c-3.124 0-4.164-4.164-4.164-4.164v-3.906c0-3.906 3.383-6.77 3.383-6.77"
         id="path2" />
    </symbol>
  </defs>
  <g
     id="g1586">
    <path
       d="m86.52 30.75-.086 31.07s1.386-2.605 6.421-2.605c5.036 0 14.23-1.215 14.23 7.293v56.933s.349 5.465 4.505 5.465H92.664V76.75c0-4.512-5.543-4.688-5.543 0v47.219s.195 4.945 3.125 4.945H68.023s3.133-2.691 3.133-5.64V54.011s.5-7.637-13.027-7.637l.008 71.691c0 4.34.675 10.844 5.89 10.844H28.965s11.117-1.476 11.117-10.844v-71.69s-17.531-.176-17.531 13.363V30.754h63.965l.004-.004"
       id="path7" />
    <use
       xlink:href="#e"
       transform="translate(-3.593 .634)"
       id="use9" />
  </g>
  <g
     id="g1582">
    <path
       d="M74.781 178.953c-2.472 2.082-4.297 4.035-4.297 9.899v62.62s-2.734-3.386-5.859-3.386c-3.121 0-1.43 1.691-4.816 1.691H29.996s-6.379 1.172-6.379-16.136V150.84c0-11.324 7.356-13.473 12.625-13.535h109.719l-26.555 17.183H46.762s-3.778-.91-3.778 4.817v68.605c0 5.598 7.422 5.73 7.422 0v-39.055s.36-9.82-3.515-9.82v-.078H74.75l.031-.004"
       id="path11" />
    <path
       d="M94.883 233.191c0 2.954-4.676 2.782-4.676 0v-35.406c0-2.95 4.676-2.953 4.676 0zm8.558-54.238H81.18s-7.293-1.043-7.293 8.852v53.379s.175 8.59 7.422 8.59h22.136l7.809-8.59v-53.38s1.305-8.85-7.813-8.85m33.075 54.237c0 2.95-4.676 2.778-4.676 0v-35.41c0-2.949 4.676-2.953 4.676 0zm15.324 12.813V137.285l-27.992 17.188c12.629 0 11.59 11.062 11.59 11.062v15.758c0-2.996-4.036-2.348-4.036-2.348h-8.332c-9.242 0-8.332 8.856-8.332 8.856v53.504c0 8.98 7.16 8.46 7.16 8.46h12.239c1.433 0 2.73-.91 2.73-1.953 0 1.301 1.82 1.954 1.82 1.954H153.7c-1.789 0-1.855-3.778-1.855-3.778m40.3-99.058c0-4.426-4.426-9.633-8.594-9.633h-18.84c-8.344 0-9.027 9.633-9.027 9.633v99.984s-.18 2.863-1.91 2.863h23.956s-4.675-2.691-4.675-7.722v-43.57s-.348-2.255 1.039-2.255h2.258l-.012-17.277h-4.156v-25.258c0-3.644 3.296-3.644 3.296 0v16.668l16.668-10.933v-12.5"
       id="path13" />
    <path
       d="M196.777 232.273c0 3.383-4.683 3.512-4.683 0v-10.671s.258-5.993 4.683-7.555zm15.653 11.91v-55.851c0-8.852-7.16-9.371-9.367-9.371h-19.536c-5.726 0-4.945 8.336-4.945 8.336v14.191c3.254-6.902 6.77-7.808 13.535-7.808 5.598 0 4.426 5.593 1.434 7.289a2310.232 2310.232 0 0 0-7.555 4.293c-9.113 5.207-9.113 11.718-9.113 11.718v23.957c0 8.59 6.64 8.852 6.64 8.852h11.59c2.211 0 3.121 0 3.121-2.086-.129 2.086 2.606 2.086 2.606 2.086h14.191c-3.125 0-2.605-5.598-2.605-5.598m19.746-95.625v28.766c0 1.563.914 1.563 1.566 1.563h1.82v16.402h-2.343s-1.04.004-1.04 1.695v49.727s.13 2.996 1.95 2.996h-14.191c-2.344 0-4.036-.652-4.036-6.38v-77.202s0-5.211-4.168-5.211l20.442-12.363v.008"
       id="path15" />
    <path
       d="M266.836 178.953c4.168 0 8.594 5.207 8.594 9.633v54.16s.78 7.031 3.906 7.031H258.5v-52.859c0-3.906-5.207-3.906-5.207 0v47.125s-.262 5.73 1.562 5.73h-16.921v-97.62c0-4.767-3.554-5.335-3.554-5.335l18.655-9.505v45.042s1.305-3.386 5.469-3.386h8.332v-.016"
       id="path17" />
    <use
       xlink:href="#e"
       transform="translate(164.578 121.252)"
       id="use19" />
    <path
       d="m314.598 185.777 17.578-10.672v8.2s7.16-11.715 13.93-2.082v16.922c-2.215-5.727-12.11-8.07-12.11.39v41.66c0 6.64 2.606 9.508 5.727 9.508h-27.73c2.085 0 5.339-4.168 5.339-9.508V189.56s.52-3.778-2.734-3.778v-.004"
       id="path23" />
  </g>
</svg>
